<?xml version="1.0" encoding="UTF-8"?>
<svg version="1.1" xmlns="http://www.w3.org/2000/svg" width="419" height="267">
<path d="M0 0 C25.08 0 50.16 0 76 0 C80.29 7.92 84.58 15.84 89 24 C95.72049707 36.06085785 95.72049707 36.06085785 102.8359375 47.89453125 C104 50 104 50 104 53 C104.66 53 105.32 53 106 53 C107.0076952 54.7664657 108.00591714 56.53833823 109 58.3125 C109.556875 59.29863281 110.11375 60.28476563 110.6875 61.30078125 C112 64 112 64 112 67 C112.66 67 113.32 67 114 67 C114.67119549 68.4562545 115.33681807 69.91507867 116 71.375 C116.556875 72.59316406 116.556875 72.59316406 117.125 73.8359375 C118 76 118 76 118 78 C118.66 78 119.32 78 120 78 C121.00484204 79.95585325 122.00373805 81.91476237 123 83.875 C123.556875 84.96554688 124.11375 86.05609375 124.6875 87.1796875 C126 90 126 90 126 92 C126.66 92 127.32 92 128 92 C128.79664063 93.61068359 128.79664063 93.61068359 129.609375 95.25390625 C130.32280745 96.69015842 131.03635529 98.12635328 131.75 99.5625 C132.09804687 100.26697266 132.44609375 100.97144531 132.8046875 101.69726562 C134.52995162 105.16376854 136.30253364 108.56387665 138.265625 111.90234375 C140 115 140 115 140 117 C140.66 117 141.32 117 142 117 C145.465 123.93 145.465 123.93 149 131 C149.33 90.08 149.66 49.16 150 7 C151.32 7 152.64 7 154 7 C155.5703125 8.84375 155.5703125 8.84375 157.125 11.5 C158.02605469 12.99853516 158.02605469 12.99853516 158.9453125 14.52734375 C159.27176758 15.08147949 159.59822266 15.63561523 159.93457031 16.20654297 C161.90504002 19.5234702 163.95652233 22.79023679 166 26.0625 C166.64050293 27.09298462 166.64050293 27.09298462 167.29394531 28.14428711 C170.23326658 32.84956249 173.33571293 37.40535525 176.55859375 41.921875 C178.13969798 44.20140738 179.52442478 46.56303863 180.86328125 48.9921875 C183.74828814 54.0880416 186.91178122 59.02554056 190 64 C190.41121094 64.66338379 190.82242188 65.32676758 191.24609375 66.01025391 C192.53707125 68.09141558 193.83031413 70.17114339 195.125 72.25 C195.5485376 72.93022217 195.9720752 73.61044434 196.40844727 74.3112793 C199.1447631 78.68607565 201.96464054 82.98674297 204.94140625 87.203125 C207.00875419 90.71227649 207.13633234 94.20079631 207.19287109 98.20825195 C207.20893402 99.24645584 207.22499695 100.28465973 207.24154663 101.35432434 C207.28617598 106.08996783 207.32704631 110.82547462 207.35009766 115.5612793 C207.36666419 118.05681682 207.39396299 120.55230677 207.43212891 123.04760742 C207.48695595 126.65308143 207.50878021 130.25744626 207.5234375 133.86328125 C207.54610687 134.97391434 207.56877625 136.08454742 207.59213257 137.22883606 C207.57307695 144.23359468 206.66582802 147.72883665 202 153 C201.23848422 154.31512567 200.50338295 155.6464334 199.8125 157 C197.1509178 161.91433202 194.06412328 166.4963188 190.94360352 171.12548828 C187.99014668 175.50782545 185.09514098 179.92160373 182.25 184.375 C179.81006233 188.19396406 177.34922598 191.99432777 174.8125 195.75 C172.81701103 198.71863154 170.9451898 201.73330492 169.125 204.8125 C166.30114219 209.57271746 163.25822813 214.15944061 160.16796875 218.75 C156.36643362 224.44887789 152.6887815 230.22774007 149 236 C146.68139648 235.78491211 146.68139648 235.78491211 144 235 C142.42602539 233.02563477 142.42602539 233.02563477 141.09765625 230.44140625 C140.35032227 229.02504883 140.35032227 229.02504883 139.58789062 227.58007812 C139.08451172 226.58427734 138.58113281 225.58847656 138.0625 224.5625 C137.05551618 222.62519306 136.0464094 220.68898808 135.03515625 218.75390625 C134.53749756 217.79460205 134.03983887 216.83529785 133.52709961 215.84692383 C131.58379179 212.2240761 129.46319297 208.72621575 127.32348633 205.21704102 C125.66731347 202.44269944 124.21761046 199.59611802 122.8125 196.6875 C121.49415296 193.96727429 120.1841575 191.30671072 118.62792969 188.71484375 C116.86747097 185.77898577 115.20862736 182.80008569 113.55859375 179.80078125 C113.23477219 179.21288818 112.91095062 178.62499512 112.57731628 178.01928711 C111.88694008 176.76573287 111.19697322 175.51195311 110.50738525 174.25796509 C108.70085813 170.97300024 106.89123014 167.68974388 105.08203125 164.40625 C104.72590759 163.75972977 104.36978394 163.11320953 104.00286865 162.44709778 C101.22035925 157.39660007 98.42779339 152.35177289 95.625 147.3125 C95.2326416 146.60706055 94.8402832 145.90162109 94.43603516 145.17480469 C93.66792703 143.79420348 92.89970091 142.41366792 92.13134766 141.03320312 C90.59142236 138.26572408 89.05347293 135.49714943 87.515625 132.72851562 C86.71495411 131.28704807 85.91417325 129.84564159 85.11328125 128.40429688 C82.80143545 124.2436924 80.49062314 120.0825167 78.18101501 115.92066956 C76.83164355 113.48928566 75.48192319 111.05809552 74.13217163 108.62692261 C73.46813546 107.43065952 72.80425251 106.23431137 72.14053345 105.03787231 C68.02048379 97.59147817 68.02048379 97.59147817 63.8046875 90.19921875 C61.73882035 86.53699972 59.88040715 82.7608143 58 79 C57.67 131.8 57.34 184.6 57 239 C53.27378156 239.74524369 50.47167946 240.12608949 46.76660156 240.12939453 C45.24042206 240.13412277 45.24042206 240.13412277 43.68341064 240.13894653 C42.59679138 240.1369223 41.51017212 240.13489807 40.390625 240.1328125 C38.70679718 240.13424759 38.70679718 240.13424759 36.98895264 240.13571167 C34.62202905 240.13639107 32.25510358 240.1345535 29.88818359 240.13037109 C26.24963246 240.12499946 22.61120365 240.13033447 18.97265625 240.13671875 C16.67447889 240.13605832 14.37630161 240.13477789 12.078125 240.1328125 C10.98340881 240.13483673 9.88869263 240.13686096 8.76080322 240.13894653 C7.75595886 240.13579437 6.7511145 240.13264221 5.71582031 240.12939453 C4.82711243 240.12859894 3.93840454 240.12780334 3.02276611 240.12698364 C1 240 1 240 0 239 C-0.09803662 235.92810576 -0.12990812 232.87868011 -0.12025452 229.80638123 C-0.12110894 228.82955779 -0.12196337 227.85273435 -0.12284368 226.8463102 C-0.12450145 223.54652911 -0.11897228 220.24679795 -0.11352539 216.94702148 C-0.11324356 214.59222413 -0.11340118 212.23742669 -0.1139679 209.88262939 C-0.11425602 203.46759631 -0.10835691 197.05258174 -0.10139394 190.63755298 C-0.09531949 184.61936854 -0.09477212 178.60118191 -0.09374207 172.58299495 C-0.09155123 160.6595745 -0.0848903 148.73616088 -0.07543945 136.81274414 C-0.06626615 125.22745803 -0.05918492 113.64217377 -0.05493164 102.05688477 C-0.05466892 101.34325555 -0.05440619 100.62962633 -0.05413551 99.89437198 C-0.05283051 96.3144496 -0.05156679 92.7345272 -0.05032361 89.15460479 C-0.03995001 59.43639783 -0.02151119 29.71820143 0 0 Z " fill="#FBFCFE" transform="translate(12,12)"/>
<path d="M0 0 C9.005444 -0.25536121 18.00963492 -0.45055381 27.01791477 -0.56993389 C31.20148 -0.62724628 35.38256176 -0.70490096 39.56469727 -0.82983398 C43.60441695 -0.94975127 47.6417563 -1.01519953 51.68311882 -1.04364967 C53.22118562 -1.06390887 54.75912799 -1.10347913 56.296175 -1.16303062 C61.02605938 -1.33892334 65.40895608 -1.33297252 70 0 C73.36818867 3.26342759 75.13725763 6.74088658 77 11 C77.78014281 12.3243696 78.57697546 13.63942166 79.40625 14.93359375 C80.10570886 16.10063958 80.80367827 17.26857968 81.5 18.4375 C81.83902344 19.00275391 82.17804688 19.56800781 82.52734375 20.15039062 C84.79223825 23.93765927 87.01738727 27.74700433 89.234375 31.5625 C92.97329502 37.97846666 96.78182223 44.35036245 100.62646484 50.70336914 C101.38453772 51.95776396 102.14067972 53.21332743 102.89501953 54.4699707 C104.00395894 56.31717406 105.11849824 58.16088752 106.234375 60.00390625 C107.21229004 61.62534546 107.21229004 61.62534546 108.20996094 63.27954102 C109.67845796 65.51132802 111.01788952 67.23638085 113 69 C113.36351562 68.31035156 113.72703125 67.62070313 114.1015625 66.91015625 C117.05128325 61.39644747 120.13254467 56.10776505 123.703125 50.97265625 C124.97381132 49.03983519 126.00966319 47.08811581 127 45 C127.66 45 128.32 45 129 45 C129.37125 43.9790625 129.37125 43.9790625 129.75 42.9375 C132.93070014 35.46285468 137.6477776 28.60273325 141.875 21.6875 C143.08104803 19.71243425 144.28677982 17.73717537 145.4921875 15.76171875 C146.02183105 14.89506592 146.55147461 14.02841309 147.09716797 13.13549805 C149.01212794 10.17721115 149.01212794 10.17721115 150.01119995 7.44830322 C151.38955069 4.39864844 152.58449642 2.33160758 155 0 C160.14476128 -1.41762574 165.18353221 -1.1673564 170.4609375 -0.9765625 C171.97689131 -0.95789435 173.49290576 -0.94366768 175.00894165 -0.9336853 C178.98574501 -0.89562935 182.95885384 -0.79753255 186.9342041 -0.68664551 C190.99599214 -0.58405971 195.05838171 -0.53861645 199.12109375 -0.48828125 C207.08241865 -0.38125976 215.04074893 -0.21076449 223 0 C222.39067958 3.2764679 221.79621908 5.74928807 219.99609375 8.56640625 C219.38616577 9.53211548 219.38616577 9.53211548 218.76391602 10.51733398 C218.10734009 11.52969116 218.10734009 11.52969116 217.4375 12.5625 C216.9849585 13.272854 216.53241699 13.98320801 216.06616211 14.71508789 C212.8159189 19.79677648 209.48503714 24.82368979 206.1171875 29.828125 C202.65119264 35.02072247 199.27720075 40.27242601 195.89453125 45.51953125 C193.90318047 48.60772594 191.89926291 51.68729521 189.88671875 54.76171875 C189.38245361 55.53427002 188.87818848 56.30682129 188.35864258 57.1027832 C187.38841861 58.58869311 186.41569939 60.0729775 185.44018555 61.55541992 C185.00359619 62.22549072 184.56700684 62.89556152 184.1171875 63.5859375 C183.73159668 64.1742334 183.34600586 64.7625293 182.94873047 65.36865234 C181.83450111 67.15721553 181.83450111 67.15721553 181 70 C180.34 70 179.68 70 179 70 C178.7834375 70.65355469 178.566875 71.30710937 178.34375 71.98046875 C176.5160691 76.08743775 174.03489435 79.61160962 171.5 83.3125 C166.97975009 89.99130774 162.59667669 96.72987202 158.38671875 103.60864258 C155.76071673 107.87532992 152.9487292 111.94874771 150 116 C151.96454718 120.10075382 154.36375434 123.89753689 156.7578125 127.7578125 C158 130 158 130 158 132 C158.66 132 159.32 132 160 132 C160.57234375 133.01835937 161.1446875 134.03671875 161.734375 135.0859375 C163.78831378 138.67942794 165.99134638 142.15577303 168.25 145.625 C171.15830227 150.11422556 174.02092337 154.62423381 176.8125 159.1875 C185.00439568 172.56598052 193.4824234 185.76793188 201.91503906 198.99536133 C205.84095759 205.15975174 209.73042011 211.34535359 213.57226562 217.5625 C215.44733668 220.58152196 217.36001413 223.55552256 219.390625 226.47265625 C220.12796875 227.53355469 220.8653125 228.59445313 221.625 229.6875 C222.27726563 230.59886719 222.92953125 231.51023438 223.6015625 232.44921875 C225.15954524 235.29101409 225.11852021 236.8261083 225 240 C216.04696685 240.37215082 207.0966237 240.65567252 198.13752174 240.82899475 C193.97609467 240.91222806 189.81998536 241.0248592 185.66162109 241.20703125 C158.87000408 242.35031304 158.87000408 242.35031304 152.56790161 238.52294922 C148.95203407 234.90666168 147.14508272 230.7753904 145.63842773 225.9453125 C144.79496807 223.37526025 143.48316489 221.25886867 142.01171875 219 C141.23455407 217.66807874 140.45965967 216.33482907 139.6875 215 C138.90087012 213.6451763 138.1131124 212.29100679 137.32421875 210.9375 C136.9482959 210.29167969 136.57237305 209.64585937 136.18505859 208.98046875 C134.53744311 206.22697539 132.78920093 203.54047771 131.02661133 200.859375 C129.95362623 198.91600888 129.43968818 197.1675698 129 195 C128.34 195 127.68 195 127 195 C126.62488281 194.29875 126.24976563 193.5975 125.86328125 192.875 C122.33894831 186.34122407 118.60682985 180.03199232 114.578125 173.80078125 C114.11921875 173.08277344 113.6603125 172.36476562 113.1875 171.625 C112.76855469 170.97789062 112.34960938 170.33078125 111.91796875 169.6640625 C111 168 111 168 111 166 C108.31038946 168.44269881 106.5620282 171.1214586 104.6796875 174.21875 C103.75349609 175.74048828 103.75349609 175.74048828 102.80859375 177.29296875 C102.17050781 178.35128906 101.53242188 179.40960938 100.875 180.5 C100.22917969 181.55832031 99.58335937 182.61664063 98.91796875 183.70703125 C95.52086574 189.14482924 95.52086574 189.14482924 93 195 C92.34 195 91.68 195 91 195 C90.77699219 195.64710938 90.55398438 196.29421875 90.32421875 196.9609375 C88.52462338 201.09098232 86.18649728 204.80319089 83.8125 208.625 C83.07265869 209.82552002 83.07265869 209.82552002 82.31787109 211.05029297 C78.11428924 217.85655022 73.82240045 224.6046993 69.5 231.3359375 C69.04625 232.05007812 68.5925 232.76421875 68.125 233.5 C67.73570312 234.1084375 67.34640625 234.716875 66.9453125 235.34375 C65.83925391 237.15620853 65.83925391 237.15620853 65 240 C42.56 240 20.12 240 -3 240 C-3.33 239.34 -3.66 238.68 -4 238 C-3.13671875 236.14453125 -3.13671875 236.14453125 -1.6875 233.8125 C-1.13191406 232.91789063 -0.57632813 232.02328125 -0.00390625 231.1015625 C2.67808865 226.95048267 5.42418604 222.84421784 8.18261719 218.74365234 C11.58383813 213.67234797 14.80433271 208.50705681 17.9765625 203.2890625 C20.62666233 198.98137127 23.36557904 194.73386225 26.11938477 190.49194336 C28.18161639 187.31704179 28.18161639 187.31704179 30 184 C30.66 184 31.32 184 32 184 C32.2784375 182.824375 32.2784375 182.824375 32.5625 181.625 C34.25318933 177.36152256 36.63238137 174.11039277 39.3125 170.4140625 C41.21408717 167.69373641 42.64811436 165.02186203 44 162 C44.66 162 45.32 162 46 162 C46.22300781 161.34257812 46.44601563 160.68515625 46.67578125 160.0078125 C48.43792923 156.00529349 50.77799072 152.51472502 53.1875 148.875 C54.18397074 147.35441365 55.18006451 145.8335802 56.17578125 144.3125 C56.65998535 143.57515625 57.14418945 142.8378125 57.64306641 142.078125 C59.97229965 138.51093656 62.23332238 134.90106421 64.4921875 131.2890625 C65.8914921 129.16472961 67.40513573 127.2283289 69 125.25 C71.23594471 122.17146293 71.23594471 122.17146293 71.25 118.75 C69.40707692 113.22123076 66.25748108 108.79773873 63 104 C61.93091039 102.33755258 60.86844297 100.67082868 59.8125 99 C59.24144531 98.1028125 58.67039063 97.205625 58.08203125 96.28125 C54.84861881 91.18544052 51.62884705 86.08102693 48.40795898 80.97729492 C45.73937789 76.74984387 43.06517567 72.52625858 40.375 68.3125 C37.47639894 63.76469489 34.60979358 59.19726643 31.75 54.625 C31.32509277 53.94606689 30.90018555 53.26713379 30.46240234 52.56762695 C28.77288456 49.86271906 27.0930393 47.15569361 25.45703125 44.41796875 C23.6785309 41.46651643 21.81032676 38.58001465 19.9375 35.6875 C15.26127231 28.43949282 10.66727711 21.14221009 6.125 13.80957031 C5.09123591 12.1467536 4.04615461 10.49098678 3 8.8359375 C2.443125 7.94132812 1.88625 7.04671875 1.3125 6.125 C0.83425781 5.36445313 0.35601562 4.60390625 -0.13671875 3.8203125 C-0.42160156 3.21960938 -0.70648438 2.61890625 -1 2 C-0.67 1.34 -0.34 0.68 0 0 Z " fill="#FAFCFE" transform="translate(183,12)"/>
<path d="M0 0 C0.33 0.66 0.66 1.32 1 2 C1.67349991 1.99777939 2.34699982 1.99555878 3.04090881 1.99327087 C10.06527169 1.9711078 17.0896246 1.9560474 24.11401367 1.94506836 C26.73380944 1.9400468 29.35360243 1.9332283 31.97338867 1.92456055 C35.74398489 1.91239964 39.51454397 1.90674982 43.28515625 1.90234375 C44.45208511 1.89718246 45.61901398 1.89202118 46.82130432 1.88670349 C52.32360694 1.88632589 57.58218223 2.01089745 63 3 C63 3.33 63 3.66 63 4 C42.21 4 21.42 4 0 4 C-0.33 3.34 -0.66 2.68 -1 2 C-0.67 1.34 -0.34 0.68 0 0 Z " fill="#B9DAF8" transform="translate(180,248)"/>
<path d="M0 0 C1 4 1 4 1 4 Z " fill="#0055A3" transform="translate(418,255)"/>
<path d="M0 0 C1 4 1 4 1 4 Z " fill="#0056A4" transform="translate(418,4)"/>
<path d="" fill="#00539F" transform="translate(0,0)"/>
<path d="" fill="#0057A6" transform="translate(0,0)"/>
<path d="" fill="#0055A2" transform="translate(0,0)"/>
</svg>
