<?xml version="1.0" encoding="UTF-8"?>
<svg version="1.1" xmlns="http://www.w3.org/2000/svg" width="512" height="512">
<path d="M0 0 C2.51470083 -0.00435334 5.02940034 -0.00953856 7.5440979 -0.01548767 C13.63763058 -0.02744127 19.73110243 -0.03003709 25.82464454 -0.02768741 C30.78411501 -0.02589605 35.74357219 -0.02767131 40.70304108 -0.03191185 C41.76646507 -0.03280463 41.76646507 -0.03280463 42.85137238 -0.03371545 C44.29215374 -0.03492735 45.7329351 -0.03614149 47.17371646 -0.03735783 C60.6522817 -0.04820675 74.13082186 -0.0460836 87.6093885 -0.03997298 C99.9021698 -0.03480755 112.19487176 -0.04605414 124.48763737 -0.0650712 C137.15109394 -0.08450945 149.8145131 -0.09269506 162.47798467 -0.08894795 C169.57098964 -0.08704478 176.66392716 -0.08943634 183.75691986 -0.10366249 C190.43176877 -0.11691601 197.10643439 -0.11423554 203.78129196 -0.1012516 C206.21838054 -0.0989003 208.65548045 -0.10156804 211.092556 -0.10987473 C227.75211597 -0.16252394 244.26525961 0.29810261 260.13769531 5.9621582 C260.86867432 6.21562012 261.59965332 6.46908203 262.3527832 6.73022461 C279.2394841 12.79771688 292.97777676 21.96036929 306.01269531 34.2746582 C306.77453125 34.97204102 307.53636719 35.66942383 308.32128906 36.38793945 C320.81865465 48.23552866 329.78396057 63.99241086 335.32519531 80.2121582 C335.67070435 81.21122192 335.67070435 81.21122192 336.02319336 82.23046875 C341.22402597 98.42462092 341.45058781 114.25207452 341.41674805 131.09985352 C341.42245995 133.68057041 341.42942736 136.26128479 341.43754578 138.84199524 C341.45462792 145.08967453 341.45559586 151.33725279 341.45033287 157.58494934 C341.44626942 162.67069503 341.44776034 167.75641116 341.45308113 172.84215546 C341.45382955 173.56968389 341.45457798 174.29721232 341.45534908 175.04678707 C341.45688077 176.5254129 341.45841912 178.00403873 341.45996404 179.48266456 C341.47365123 193.30896571 341.46827849 207.13521009 341.45677883 220.96150991 C341.44685421 233.56646433 341.45978051 246.17127179 341.48371302 258.77620354 C341.50819016 271.76744442 341.51769061 284.75861711 341.5110603 297.74988055 C341.50758663 305.02402442 341.50967615 312.29805547 341.52731133 319.5721817 C341.54370399 326.41782324 341.53871864 333.26318186 341.52000618 340.10881615 C341.51634659 342.60634244 341.5193509 345.10388983 341.52989197 347.60139656 C341.67148794 383.95446022 332.36807049 413.38805255 307.01269531 440.2746582 C306.40039062 440.95141602 305.78808594 441.62817383 305.15722656 442.32543945 C292.93542717 455.32901706 276.82165692 463.78627309 260.13769531 469.5871582 C259.49219727 469.81757813 258.84669922 470.04799805 258.18164062 470.28540039 C241.69798014 475.66927223 224.73109496 475.70990457 207.5871582 475.6628418 C205.07348911 475.66691547 202.5598218 475.67226179 200.04615784 475.67877197 C193.97018595 475.69095221 187.89436039 475.68927924 181.81838686 475.68053405 C176.8728417 475.67371511 171.92732763 475.6728588 166.9817791 475.6761055 C166.27366045 475.6765652 165.56554181 475.6770249 164.83596502 475.67749853 C163.39671552 475.67845786 161.95746603 475.6794305 160.51821654 475.6804163 C147.07106222 475.68893936 133.62396959 475.6791851 120.1768254 475.6630152 C108.6801086 475.64961775 97.18348274 475.65194139 85.68676758 475.66577148 C72.28410091 475.68188719 58.88148812 475.68811263 45.47881311 475.67893469 C44.04501785 475.67797921 42.61122257 475.67703609 41.17742729 475.6761055 C40.47227015 475.67564267 39.76711301 475.67517985 39.04058747 475.67470299 C34.1110249 475.67213078 29.18149698 475.6764456 24.25193977 475.68354416 C17.59590293 475.69291961 10.94006217 475.68608509 4.28403282 475.66886139 C1.8554271 475.66492769 -0.57319317 475.66597639 -3.00179291 475.67264938 C-35.80653563 475.75440776 -65.20307995 469.8208681 -90.98730469 448.2746582 C-91.98246094 447.44321289 -92.97761719 446.61176758 -94.00292969 445.75512695 C-117.12025076 425.80968295 -131.51338226 396.65520231 -133.98730469 366.2746582 C-134.12215875 362.70360178 -134.13096914 359.13683222 -134.12774658 355.56350708 C-134.1307177 354.51975005 -134.13368883 353.47599302 -134.13674998 352.40060699 C-134.14538536 348.92127856 -134.14694086 345.44198476 -134.1484375 341.96264648 C-134.15306942 339.46015856 -134.15809459 336.95767134 -134.16348267 334.45518494 C-134.17657483 327.66746724 -134.18308322 320.87976295 -134.18749332 314.09203577 C-134.19026502 309.84462899 -134.19450409 305.59722445 -134.1989975 301.34981918 C-134.21118502 289.56454423 -134.22148443 277.77927106 -134.22487259 265.99398994 C-134.22509216 265.24090962 -134.22531172 264.4878293 -134.22553794 263.71192836 C-134.22575622 262.95715335 -134.2259745 262.20237835 -134.22619939 261.42473137 C-134.22664284 259.89554032 -134.2270894 258.36634926 -134.22753906 256.8371582 C-134.22776049 256.07864362 -134.22798192 255.32012903 -134.22821006 254.53862916 C-134.2321517 242.26884253 -134.24958864 229.99911553 -134.27289858 217.72935189 C-134.29669792 205.09882427 -134.30907837 192.46832645 -134.31024051 179.83777606 C-134.31115262 172.759749 -134.31678652 165.68179958 -134.33506012 158.6037941 C-134.35221209 151.93722532 -134.35365011 145.27082794 -134.34492111 138.6042347 C-134.34415577 136.17079206 -134.34842621 133.73734124 -134.35837936 131.30391884 C-134.48465211 98.48059533 -128.54471835 69.07229043 -106.98730469 43.2746582 C-105.74013672 41.78192383 -105.74013672 41.78192383 -104.46777344 40.2590332 C-87.69458102 20.82254034 -64.1875486 7.24396939 -38.98730469 2.2746582 C-37.70529238 2.02133335 -37.70529238 2.02133335 -36.39738083 1.76289082 C-24.31375762 -0.27730759 -12.21880284 -0.01401769 0 0 Z " fill="#0178E5" transform="translate(151.9873046875,18.725341796875)"/>
<path d="M0 0 C2.51470083 -0.00435334 5.02940034 -0.00953856 7.5440979 -0.01548767 C13.63763058 -0.02744127 19.73110243 -0.03003709 25.82464454 -0.02768741 C30.78411501 -0.02589605 35.74357219 -0.02767131 40.70304108 -0.03191185 C41.76646507 -0.03280463 41.76646507 -0.03280463 42.85137238 -0.03371545 C44.29215374 -0.03492735 45.7329351 -0.03614149 47.17371646 -0.03735783 C60.6522817 -0.04820675 74.13082186 -0.0460836 87.6093885 -0.03997298 C99.9021698 -0.03480755 112.19487176 -0.04605414 124.48763737 -0.0650712 C137.15109394 -0.08450945 149.8145131 -0.09269506 162.47798467 -0.08894795 C169.57098964 -0.08704478 176.66392716 -0.08943634 183.75691986 -0.10366249 C190.43176877 -0.11691601 197.10643439 -0.11423554 203.78129196 -0.1012516 C206.21838054 -0.0989003 208.65548045 -0.10156804 211.092556 -0.10987473 C227.75211597 -0.16252394 244.26525961 0.29810261 260.13769531 5.9621582 C260.86867432 6.21562012 261.59965332 6.46908203 262.3527832 6.73022461 C279.2394841 12.79771688 292.97777676 21.96036929 306.01269531 34.2746582 C306.77453125 34.97204102 307.53636719 35.66942383 308.32128906 36.38793945 C320.81865465 48.23552866 329.78396057 63.99241086 335.32519531 80.2121582 C335.67070435 81.21122192 335.67070435 81.21122192 336.02319336 82.23046875 C341.22402597 98.42462092 341.45058781 114.25207452 341.41674805 131.09985352 C341.42245995 133.68057041 341.42942736 136.26128479 341.43754578 138.84199524 C341.45462792 145.08967453 341.45559586 151.33725279 341.45033287 157.58494934 C341.44626942 162.67069503 341.44776034 167.75641116 341.45308113 172.84215546 C341.45382955 173.56968389 341.45457798 174.29721232 341.45534908 175.04678707 C341.45688077 176.5254129 341.45841912 178.00403873 341.45996404 179.48266456 C341.47365123 193.30896571 341.46827849 207.13521009 341.45677883 220.96150991 C341.44685421 233.56646433 341.45978051 246.17127179 341.48371302 258.77620354 C341.50819016 271.76744442 341.51769061 284.75861711 341.5110603 297.74988055 C341.50758663 305.02402442 341.50967615 312.29805547 341.52731133 319.5721817 C341.54370399 326.41782324 341.53871864 333.26318186 341.52000618 340.10881615 C341.51634659 342.60634244 341.5193509 345.10388983 341.52989197 347.60139656 C341.67148794 383.95446022 332.36807049 413.38805255 307.01269531 440.2746582 C306.40039062 440.95141602 305.78808594 441.62817383 305.15722656 442.32543945 C292.93542717 455.32901706 276.82165692 463.78627309 260.13769531 469.5871582 C259.49219727 469.81757813 258.84669922 470.04799805 258.18164062 470.28540039 C241.69798014 475.66927223 224.73109496 475.70990457 207.5871582 475.6628418 C205.07348911 475.66691547 202.5598218 475.67226179 200.04615784 475.67877197 C193.97018595 475.69095221 187.89436039 475.68927924 181.81838686 475.68053405 C176.8728417 475.67371511 171.92732763 475.6728588 166.9817791 475.6761055 C166.27366045 475.6765652 165.56554181 475.6770249 164.83596502 475.67749853 C163.39671552 475.67845786 161.95746603 475.6794305 160.51821654 475.6804163 C147.07106222 475.68893936 133.62396959 475.6791851 120.1768254 475.6630152 C108.6801086 475.64961775 97.18348274 475.65194139 85.68676758 475.66577148 C72.28410091 475.68188719 58.88148812 475.68811263 45.47881311 475.67893469 C44.04501785 475.67797921 42.61122257 475.67703609 41.17742729 475.6761055 C40.47227015 475.67564267 39.76711301 475.67517985 39.04058747 475.67470299 C34.1110249 475.67213078 29.18149698 475.6764456 24.25193977 475.68354416 C17.59590293 475.69291961 10.94006217 475.68608509 4.28403282 475.66886139 C1.8554271 475.66492769 -0.57319317 475.66597639 -3.00179291 475.67264938 C-35.80653563 475.75440776 -65.20307995 469.8208681 -90.98730469 448.2746582 C-91.98246094 447.44321289 -92.97761719 446.61176758 -94.00292969 445.75512695 C-117.12025076 425.80968295 -131.51338226 396.65520231 -133.98730469 366.2746582 C-134.12215875 362.70360178 -134.13096914 359.13683222 -134.12774658 355.56350708 C-134.1307177 354.51975005 -134.13368883 353.47599302 -134.13674998 352.40060699 C-134.14538536 348.92127856 -134.14694086 345.44198476 -134.1484375 341.96264648 C-134.15306942 339.46015856 -134.15809459 336.95767134 -134.16348267 334.45518494 C-134.17657483 327.66746724 -134.18308322 320.87976295 -134.18749332 314.09203577 C-134.19026502 309.84462899 -134.19450409 305.59722445 -134.1989975 301.34981918 C-134.21118502 289.56454423 -134.22148443 277.77927106 -134.22487259 265.99398994 C-134.22509216 265.24090962 -134.22531172 264.4878293 -134.22553794 263.71192836 C-134.22575622 262.95715335 -134.2259745 262.20237835 -134.22619939 261.42473137 C-134.22664284 259.89554032 -134.2270894 258.36634926 -134.22753906 256.8371582 C-134.22776049 256.07864362 -134.22798192 255.32012903 -134.22821006 254.53862916 C-134.2321517 242.26884253 -134.24958864 229.99911553 -134.27289858 217.72935189 C-134.29669792 205.09882427 -134.30907837 192.46832645 -134.31024051 179.83777606 C-134.31115262 172.759749 -134.31678652 165.68179958 -134.33506012 158.6037941 C-134.35221209 151.93722532 -134.35365011 145.27082794 -134.34492111 138.6042347 C-134.34415577 136.17079206 -134.34842621 133.73734124 -134.35837936 131.30391884 C-134.48465211 98.48059533 -128.54471835 69.07229043 -106.98730469 43.2746582 C-105.74013672 41.78192383 -105.74013672 41.78192383 -104.46777344 40.2590332 C-87.69458102 20.82254034 -64.1875486 7.24396939 -38.98730469 2.2746582 C-37.70529238 2.02133335 -37.70529238 2.02133335 -36.39738083 1.76289082 C-24.31375762 -0.27730759 -12.21880284 -0.01401769 0 0 Z M-84.98730469 63.2746582 C-87.53347619 66.48907778 -89.79614282 69.81085182 -91.98730469 73.2746582 C-92.49777344 74.04036133 -93.00824219 74.80606445 -93.53417969 75.5949707 C-106.36134467 95.62915107 -108.59554262 117.06212667 -108.50488281 140.23144531 C-108.51031554 142.58748301 -108.5174446 144.94351731 -108.52612305 147.29954529 C-108.54422332 153.64674627 -108.53734383 159.99368463 -108.5246067 166.34088969 C-108.51544556 172.33696292 -108.52247354 178.33301321 -108.52831548 184.32908589 C-108.53967564 196.92929974 -108.52668021 209.52939649 -108.50511402 222.12959111 C-108.48725133 232.89862713 -108.49034915 243.66749054 -108.50878906 254.43652344 C-108.53028421 266.99540032 -108.5385731 279.55417497 -108.52634001 292.11306769 C-108.52005657 298.74159498 -108.51917763 305.37002665 -108.53248596 311.99854851 C-108.54413352 318.23439921 -108.53585747 324.46992752 -108.51290894 330.70574379 C-108.50766886 332.97954145 -108.50905373 335.25336676 -108.51795959 337.52715302 C-108.63406931 370.21234568 -99.75210804 396.85216776 -76.79980469 420.8371582 C-58.02589401 439.14687878 -31.26106891 450.62122445 -4.93536377 450.54881287 C-3.4941282 450.55666788 -3.4941282 450.55666788 -2.02377677 450.56468159 C1.16908778 450.57958306 4.36179068 450.58038458 7.5546875 450.58105469 C9.85541552 450.58868314 12.156141 450.59711181 14.4568634 450.60627747 C20.69102563 450.62816982 26.92513881 450.63701506 33.15933514 450.64210391 C37.06354789 450.64575567 40.96774797 450.65200018 44.87195587 450.6591053 C55.71364545 450.67855369 66.55532207 450.69507038 77.39702988 450.69798183 C78.43568731 450.69826319 78.43568731 450.69826319 79.49532773 450.69855023 C80.89867194 450.69891644 82.30201616 450.69928014 83.70536038 450.69964134 C84.40184439 450.69982415 85.09832839 450.70000696 85.81591797 450.70019531 C86.51326782 450.70037586 87.21061768 450.70055641 87.92909935 450.70074243 C99.20100925 450.70427581 110.47272713 450.73124952 121.74457058 450.7686932 C133.35927418 450.80696192 144.97387382 450.82570156 156.58864141 450.82644135 C163.0928138 450.82723012 169.59673853 450.83578288 176.10085297 450.86443901 C182.23074716 450.89084242 188.36019235 450.89270174 194.49011803 450.87678337 C196.72235033 450.87498609 198.95460979 450.88150094 201.18678474 450.89760208 C233.42055929 451.11566621 262.49720944 442.07262217 286.01269531 419.2746582 C293.95287076 411.19319849 299.84474878 402.31490215 305.01269531 392.2746582 C305.71845703 390.95788086 305.71845703 390.95788086 306.43847656 389.61450195 C309.31238883 383.85777986 311.095745 377.90291447 312.76269531 371.7121582 C313.07920044 370.54293823 313.07920044 370.54293823 313.40209961 369.35009766 C315.67561863 360.44913542 316.1623824 351.57245109 316.15313721 342.41685486 C316.15610833 341.47700463 316.15907945 340.53715441 316.16214061 339.56882387 C316.17075098 336.4472405 316.17232931 333.32569583 316.17382812 330.20410156 C316.17846174 327.9543754 316.18348712 325.70465002 316.18887329 323.45492554 C316.20194706 317.36159567 316.20843243 311.26827679 316.21288395 305.1749351 C316.21582284 301.36122094 316.21992917 297.54750974 316.22438812 293.73379707 C316.23648743 283.14858978 316.24687262 272.56338508 316.25026321 261.97817135 C316.25048278 261.30228091 316.25070235 260.62639048 316.25092857 259.93001852 C316.25114684 259.25262934 316.25136512 258.57524017 316.25159001 257.87732404 C316.25203346 256.50496733 316.25248002 255.13261062 316.25292969 253.76025391 C316.25315112 253.07953619 316.25337255 252.39881847 316.25360069 251.69747294 C316.25754416 240.68090179 316.27498872 229.66439696 316.29828921 218.6478514 C316.32208741 207.30325325 316.33421167 195.95869944 316.33563113 184.61407191 C316.33667528 178.25823383 316.3424998 171.90248946 316.36045074 165.54667473 C316.37702539 159.56216319 316.37904161 153.57781485 316.37031174 147.59328842 C316.36954637 145.40895078 316.37381725 143.22460402 316.38376999 141.04028893 C316.50760429 112.14537551 310.81597626 86.16422092 292.01269531 63.2746582 C291.325625 62.42258789 290.63855469 61.57051758 289.93066406 60.69262695 C276.53106749 44.90646031 258.21460294 33.94894145 238.20774078 28.84018707 C236.65193674 28.43935159 235.10634634 27.9978795 233.56978607 27.52864838 C222.49746572 24.47461254 211.42336062 24.83755208 200.02246094 24.85473633 C197.70981438 24.84738623 195.39717148 24.83879728 193.08453369 24.82907104 C186.83199402 24.80693975 180.57958648 24.80392036 174.32701302 24.80581856 C169.08925646 24.8059387 163.85152744 24.79735613 158.61377859 24.78904104 C145.53685682 24.76873916 132.46001082 24.76764549 119.38307875 24.77484816 C108.07511085 24.78041395 96.76737017 24.75963111 85.45945531 24.7264877 C73.80284502 24.69259209 62.14634306 24.67760239 50.48968267 24.68220472 C43.96380183 24.68426151 37.43814714 24.67896009 30.91230774 24.65431213 C24.76594548 24.63186307 18.62005163 24.63407256 12.47368622 24.65423965 C10.23458738 24.65761836 7.99545587 24.65269858 5.75640106 24.63825607 C-30.01898015 24.42366145 -60.59850973 36.44698374 -84.98730469 63.2746582 Z " fill="#0077E5" transform="translate(151.9873046875,18.725341796875)"/>
<path d="M0 0 C24.42 0 48.84 0 74 0 C78.84353395 6.05441744 82.08220345 12.19112405 84.625 19.5 C85.69825576 23.21166273 85.69825576 23.21166273 89 25 C89.495 26.7634375 89.495 26.7634375 90 28.5625 C90.495 30.2640625 90.495 30.2640625 91 32 C92.485 32.495 92.485 32.495 94 33 C95.29344529 35.21943454 96.41751618 37.36890475 97.5 39.6875 C97.79519531 40.30044922 98.09039062 40.91339844 98.39453125 41.54492188 C98.98262108 42.76643886 99.566013 43.99022947 100.14453125 45.21630859 C100.97004689 46.93754639 101.84362346 48.63547912 102.71875 50.33203125 C104 53 104 53 104 55 C105.485 55.495 105.485 55.495 107 56 C107.94921875 57.7421875 107.94921875 57.7421875 108.6875 59.875 C108.93886719 60.57367188 109.19023437 61.27234375 109.44921875 61.9921875 C110 64 110 64 110 67 C110.66 67 111.32 67 112 67 C115.76561218 71.73013741 118.30647564 77.46900085 120.88671875 82.8984375 C121.94039445 85.13628845 121.94039445 85.13628845 124 87 C124.71927295 89.31765729 125.3909893 91.65095874 126 94 C126.66 94 127.32 94 128 94 C128.33 95.98 128.66 97.96 129 100 C129.66 100 130.32 100 131 100 C133.3283641 104.05853189 135.60732005 108.03614921 137.375 112.375 C139.31345109 116.69923706 141.77888167 120.4960631 144.37890625 124.44921875 C146 127 146 127 148 131 C148.33 90.08 148.66 49.16 149 7 C150.32 7 151.64 7 153 7 C153.83848804 8.45537568 154.67063934 9.91440373 155.5 11.375 C155.9640625 12.18710938 156.428125 12.99921875 156.90625 13.8359375 C158 16 158 16 158 18 C158.99 18.33 159.98 18.66 161 19 C161.35412344 20.32796291 161.68521554 21.66216607 162 23 C162.43441406 23.43054688 162.86882812 23.86109375 163.31640625 24.3046875 C165.41976557 26.42268737 166.85220609 28.72200348 168.4375 31.25 C169.01371094 32.16265625 169.58992187 33.0753125 170.18359375 34.015625 C171.46819448 36.12623782 172.71186949 38.26201609 173.92578125 40.4140625 C176.02291034 44.11042294 178.36107358 47.61258707 180.75 51.125 C184.71966247 57.0148508 188.49761694 62.98392269 192.1796875 69.05859375 C193.84066998 71.74254183 195.58083539 74.34159517 197.375 76.9375 C199.59334219 80.19027129 200.80682445 83.23690787 202 87 C202.99 87.66 203.98 88.32 205 89 C205.40113831 91.35061646 205.40113831 91.35061646 205.43579102 94.33251953 C205.45493057 95.4477298 205.47407013 96.56294006 205.49378967 97.71194458 C205.49712814 98.92333099 205.50046661 100.13471741 205.50390625 101.3828125 C205.51389145 102.62618378 205.52387665 103.86955505 205.53416443 105.15060425 C205.5493837 107.78887991 205.55768394 110.42622941 205.5559082 113.06445312 C205.5556649 115.76135844 205.57638927 118.45672998 205.61743164 121.15332031 C205.67255237 125.04279174 205.68712545 128.93048873 205.69140625 132.8203125 C205.7129628 134.01955353 205.73451935 135.21879456 205.75672913 136.45437622 C205.69326627 144.25237851 204.32716034 148.33794644 199 154 C198.05266499 155.38085383 197.11962406 156.7719894 196.21875 158.18359375 C195.54875977 159.22725098 195.54875977 159.22725098 194.86523438 160.29199219 C194.41470703 161.00000977 193.96417969 161.70802734 193.5 162.4375 C192.54215259 163.93130127 191.58382363 165.42479389 190.625 166.91796875 C189.94630859 167.97636963 189.94630859 167.97636963 189.25390625 169.05615234 C187.25679652 172.15213904 185.20329741 175.20920067 183.140625 178.26171875 C182.11583758 179.82346671 181.17676389 181.44066319 180.25 183.0625 C179.8375 183.701875 179.425 184.34125 179 185 C178.34 185 177.68 185 177 185 C176.8453125 185.804375 176.8453125 185.804375 176.6875 186.625 C175.81907303 189.62502044 174.44379704 192.2379535 173 195 C172.34 195 171.68 195 171 195 C170.67 196.65 170.34 198.3 170 200 C169.34 200 168.68 200 168 200 C167.8453125 200.8971875 167.8453125 200.8971875 167.6875 201.8125 C166.88065708 204.37972748 165.8899143 205.1100857 164 207 C163.06375802 208.60498625 162.13234545 210.21313573 161.234375 211.83984375 C157.97098411 217.55077781 154.33517037 223.07015212 150.625 228.5 C148.8699161 230.97044803 148.8699161 230.97044803 148 234 C146.68 234 145.36 234 144 234 C143.67386719 233.31292969 143.34773437 232.62585938 143.01171875 231.91796875 C142.57472656 231.01691406 142.13773438 230.11585938 141.6875 229.1875 C141.25824219 228.29417969 140.82898438 227.40085937 140.38671875 226.48046875 C139.09596036 224.17164741 137.84971635 222.83487905 136 221 C134.90234375 218.9140625 134.90234375 218.9140625 133.9375 216.625 C133.5971875 215.83222656 133.256875 215.03945313 132.90625 214.22265625 C132.21117449 212.51792364 131.56368704 210.79372299 130.9375 209.0625 C130.06551356 206.66238996 130.06551356 206.66238996 127 205 C127 203.68 127 202.36 127 201 C126.34 201 125.68 201 125 201 C124.67 199.02 124.34 197.04 124 195 C123.34 195 122.68 195 122 195 C121.67 193.02 121.34 191.04 121 189 C120.34 189 119.68 189 119 189 C118.505 186.525 118.505 186.525 118 184 C117.01 183.67 116.02 183.34 115 183 C113.25327015 179.5065403 112 176.93154432 112 173 C111.34 173 110.68 173 110 173 C107 167.375 107 167.375 107 164 C106.34 164 105.68 164 105 164 C104.48050781 162.92621094 103.96101563 161.85242188 103.42578125 160.74609375 C102.7216835 159.30973435 102.01723775 157.8735455 101.3125 156.4375 C100.97283203 155.73302734 100.63316406 155.02855469 100.28320312 154.30273438 C98.20184438 150.08166103 95.88560652 146.3456792 93.08203125 142.5703125 C91.65720666 140.50251652 90.8549441 138.35392098 90 136 C86.08140921 128.29722919 81.78403959 120.83712864 77.28515625 113.4609375 C76 111 76 111 76 108 C75.34 108 74.68 108 74 108 C73.62875 107.236875 73.2575 106.47375 72.875 105.6875 C68.45803754 96.61292287 68.45803754 96.61292287 62.8125 88.3125 C60.30635133 85.11499998 59.3402683 81.82933801 58 78 C57.67 77.67 57.34 77.34 57 77 C56.67 130.13 56.34 183.26 56 238 C37.52 238 19.04 238 0 238 C0 159.46 0 80.92 0 0 Z " fill="#FAFCFE" transform="translate(61,138)"/>
<path d="M0 0 C23.1 0 46.2 0 70 0 C75 9 75 9 76.125 12.5 C76.41375 13.325 76.7025 14.15 77 15 C77.99 15.33 78.98 15.66 80 16 C82.08218343 18.96310719 83.13245655 21.52982618 84 25 C84.66 25.33 85.32 25.66 86 26 C86.12375 26.598125 86.2475 27.19625 86.375 27.8125 C86.86138941 30.18515137 86.86138941 30.18515137 89 32 C91.19191368 34.19191368 91.27869352 35.11477408 92 38 C92.60972656 38.58265625 93.21945312 39.1653125 93.84765625 39.765625 C96.26375429 42.27380663 97.46572477 44.60260256 98.9375 47.75 C100.74811733 51.51866405 102.60467433 55.11339146 104.875 58.625 C107 62 107 62 107 64 C108.485 64.495 108.485 64.495 110 65 C110.33 66.65 110.66 68.3 111 70 C111.66 70 112.32 70 113 70 C113 69.34 113 68.68 113 68 C113.66 68 114.32 68 115 68 C115.185625 67.13375 115.185625 67.13375 115.375 66.25 C116.00648824 63.97664233 116.88858191 62.0746471 118 60 C118.66 60 119.32 60 120 60 C120.0825 59.443125 120.165 58.88625 120.25 58.3125 C121.22230042 55.31457371 123.04136503 53.44829371 125 51 C125.77833534 48.81785432 125.77833534 48.81785432 126 47 C126.66 47 127.32 47 128 47 C128.37125 45.948125 128.37125 45.948125 128.75 44.875 C130.17180238 41.60485452 131.87246288 38.858878 134 36 C134.66 36 135.32 36 136 36 C136 35.01 136 34.02 136 33 C136.66 33 137.32 33 138 33 C138.12955078 32.14728516 138.12955078 32.14728516 138.26171875 31.27734375 C139.35414963 25.27398505 141.26134406 21.79314865 145 17 C145.33 16.01 145.66 15.02 146 14 C146.66 14 147.32 14 148 14 C148 13.34 148 12.68 148 12 C148.66 12 149.32 12 150 12 C150.061875 11.319375 150.12375 10.63875 150.1875 9.9375 C151.34052093 5.76888587 152.50911844 2.61578232 156 0 C160.9636189 -1.01431328 165.89015797 -0.81449088 170.92578125 -0.68359375 C172.39834741 -0.67052904 173.87094411 -0.66056898 175.34355164 -0.65357971 C179.20936901 -0.62692093 183.07332927 -0.55822313 186.93841553 -0.48065186 C190.88642249 -0.40889206 194.83473122 -0.37704139 198.78320312 -0.34179688 C206.5229798 -0.26684508 214.26122917 -0.14746385 222 0 C221.28046503 3.33777002 220.47108727 4.65388549 218 7 C217.22887754 8.27619913 216.50569402 9.58202712 215.8203125 10.90625 C212.5240471 17.00150999 208.69353667 22.72278263 204.875 28.5 C204.11654898 29.6531424 203.35849605 30.80654672 202.60083008 31.96020508 C201.09873389 34.2471304 199.59552912 36.53331909 198.09130859 38.81884766 C195.27690502 43.0999215 192.47647749 47.38982784 189.6875 51.6875 C189.26259277 52.33847656 188.83768555 52.98945313 188.39990234 53.66015625 C185.38152084 58.31477304 182.48328368 63.03343263 180 68 C179.34 68 178.68 68 178 68 C177.9175 68.7425 177.835 69.485 177.75 70.25 C176.85280293 73.5397226 175.45029221 74.70285105 173 77 C172.67 77.99 172.34 78.98 172 80 C171.34 80 170.68 80 170 80 C169.731875 80.73347656 169.46375 81.46695313 169.1875 82.22265625 C168.03099633 84.92750528 166.70282046 87.0492943 165 89.4375 C162.65328022 92.86027666 161.04128603 95.93898448 160 100 C159.34 100 158.68 100 158 100 C158 100.66 158 101.32 158 102 C157.34 102 156.68 102 156 102 C155.731875 102.7425 155.46375 103.485 155.1875 104.25 C154 107 154 107 152.4375 108.9375 C150.40681593 111.85109018 150.06473213 113.399275 150 117 C151.50263818 120.45063101 153.52003449 123.53397108 155.5625 126.6875 C156.68013248 128.47156299 157.79603393 130.25671161 158.91015625 132.04296875 C159.44785645 132.89681152 159.98555664 133.7506543 160.53955078 134.63037109 C162.79665454 138.29259929 164.77513786 142.06886193 166.71875 145.90625 C168.19471275 148.31818912 169.99671238 150.01215198 172 152 C173.03196059 153.52814625 174.01077925 155.09333493 174.9375 156.6875 C175.44539062 157.55890625 175.95328125 158.4303125 176.4765625 159.328125 C176.97929687 160.20984375 177.48203125 161.0915625 178 162 C178.48210937 162.84046875 178.96421875 163.6809375 179.4609375 164.546875 C181.23780614 167.68977561 182.85539908 170.56619725 184 174 C184.66 174 185.32 174 186 174 C187.63863397 176.43133054 189.14921334 178.84771535 190.625 181.375 C191.04523438 182.07367188 191.46546875 182.77234375 191.8984375 183.4921875 C195 188.72859172 195 188.72859172 195 191 C195.66 191 196.32 191 197 191 C197.12375 191.639375 197.2475 192.27875 197.375 192.9375 C197.58125 193.618125 197.7875 194.29875 198 195 C198.66 195.33 199.32 195.66 200 196 C200.12375 196.61875 200.2475 197.2375 200.375 197.875 C200.80992956 200.17892901 200.80992956 200.17892901 203 201.375 C205 203 205 203 205.75 206.1875 C205.8325 207.115625 205.915 208.04375 206 209 C206.66 209 207.32 209 208 209 C210.07255759 211.78499926 211.76151399 214.37397422 213 217.625 C213.85999026 220.09276912 213.85999026 220.09276912 215.828125 221.80078125 C218.21295164 224.21563268 219.9285511 226.70189116 221.75 229.5625 C222.36359375 230.51253906 222.9771875 231.46257812 223.609375 232.44140625 C225 235 225 235 225 238 C201.9 238 178.8 238 155 238 C154.67 237.01 154.34 236.02 154 235 C153.01 234.34 152.02 233.68 151 233 C151 231.68 151 230.36 151 229 C150.34 229 149.68 229 149 229 C148.649375 227.88625 148.29875 226.7725 147.9375 225.625 C146.64464678 222.16948061 145.01753268 219.43284968 142.84375 216.45703125 C138.81922006 210.81299419 135.16822242 204.98046346 131.5625 199.0625 C130.92634766 198.03576172 130.29019531 197.00902344 129.63476562 195.95117188 C129.03470703 194.96826172 128.43464844 193.98535156 127.81640625 192.97265625 C127.27443604 192.08843994 126.73246582 191.20422363 126.17407227 190.29321289 C125 188 125 188 125 185 C124.34 185 123.68 185 123 185 C122.55269531 184.154375 122.10539062 183.30875 121.64453125 182.4375 C118.29457015 176.15185871 114.87185619 169.98377775 111 164 C107.36595971 165.21134676 107.10349625 166.03860636 105.25 169.27734375 C104.72889648 170.17541748 104.20779297 171.07349121 103.67089844 171.9987793 C103.11950195 172.96855713 102.56810547 173.93833496 102 174.9375 C100.83985174 176.94346659 99.67837107 178.94866311 98.515625 180.953125 C97.93103516 181.96439453 97.34644531 182.97566406 96.74414062 184.01757812 C93.70235901 189.2189225 90.5258867 194.33704197 87.33984375 199.45092773 C86.91316406 200.14130127 86.48648438 200.8316748 86.046875 201.54296875 C85.67401367 202.14133545 85.30115234 202.73970215 84.91699219 203.35620117 C83.84244177 205.16265902 83.84244177 205.16265902 83 208 C82.34 208 81.68 208 81 208 C80.773125 208.680625 80.54625 209.36125 80.3125 210.0625 C78.98260874 213.0389233 77.28499261 215.44049388 75.35546875 218.0546875 C73.49368087 220.7266482 71.95352657 223.53597585 70.40625 226.3984375 C68.30560844 230.28462439 66.14537367 234.13832739 64 238 C41.89 238 19.78 238 -3 238 C-3 237.01 -3 236.02 -3 235 C-2.01 235 -1.02 235 0 235 C0.11537109 234.26064209 0.23074219 233.52128418 0.34960938 232.75952148 C1.00726052 229.96919459 1.86007051 228.23851835 3.40625 225.84765625 C3.89859131 225.07784424 4.39093262 224.30803223 4.89819336 223.51489258 C5.69108765 222.30095825 5.69108765 222.30095825 6.5 221.0625 C7.03955322 220.22291748 7.57910645 219.38333496 8.13500977 218.51831055 C9.74997809 216.00781014 11.37459085 213.50374842 13 211 C14.27117352 209.02534388 15.53958275 207.04893823 16.80761719 205.07226562 C17.90429802 203.3642113 19.00482439 201.65862797 20.10546875 199.953125 C21.67733101 197.50296445 23.22257303 195.04043105 24.75 192.5625 C26.63677187 189.51513649 28.6897603 186.6275996 30.80859375 183.73828125 C32.05218167 181.92386608 33.08683702 180.06316739 34.125 178.125 C36 175 36 175 39 174 C40.02450239 171.81862203 40.02450239 171.81862203 41 169 C42.28648006 166.30960186 43.64739872 163.65765018 45 161 C45.66759372 159.6671306 46.33452195 158.33392698 47 157 C47.66 157 48.32 157 49 157 C49 156.34 49 155.68 49 155 C49.61875 154.401875 50.2375 153.80375 50.875 153.1875 C53.20284843 150.79118544 53.80611479 149.09005584 55 146 C56.52571296 143.24138768 58.0684598 140.49490609 60 138 C60.66 138 61.32 138 62 138 C62.37125 136.4221875 62.37125 136.4221875 62.75 134.8125 C63.79571661 131.14512768 65.48106133 128.88937083 68 126 C70.75730633 122.57199754 72 120.94683019 72 116.5 C70.91657163 112.7080007 69.29293018 110.18051606 67 107 C67 106.34 67 105.68 67 105 C66.34 105 65.68 105 65 105 C64.67 103.35 64.34 101.7 64 100 C63.34 100 62.68 100 62 100 C59 95.61538462 59 95.61538462 59 93 C58.34 93 57.68 93 57 93 C56.5875 91.96875 56.175 90.9375 55.75 89.875 C54.62079116 87.20596092 53.46173937 85.2002985 51.8125 82.75 C50 80 50 80 50 77 C49.34 77 48.68 77 48 77 C48 76.34 48 75.68 48 75 C47.34 75 46.68 75 46 75 C43 70.61538462 43 70.61538462 43 68 C42.34 68 41.68 68 41 68 C40.5875 66.96875 40.175 65.9375 39.75 64.875 C38.22831497 61.28557072 36.17936992 58.23147954 34 55 C34 54.34 34 53.68 34 53 C33.34 53 32.68 53 32 53 C30.69067383 51.17089844 30.69067383 51.17089844 29.20703125 48.609375 C28.66224121 47.67714111 28.11745117 46.74490723 27.55615234 45.78442383 C26.69304443 44.28238403 26.69304443 44.28238403 25.8125 42.75 C25.22678223 41.74541748 24.64106445 40.74083496 24.03759766 39.70581055 C21.57134668 35.47145259 19.12680561 31.22481656 16.69140625 26.97265625 C15.79228516 25.40837891 15.79228516 25.40837891 14.875 23.8125 C14.37742188 22.93207031 13.87984375 22.05164063 13.3671875 21.14453125 C12.12161375 19.00990009 12.12161375 19.00990009 10.54296875 17.58203125 C7.51497201 14.47737637 5.72007985 10.38182064 3.62109375 6.6171875 C2.26268448 3.91263861 2.26268448 3.91263861 0 3 C0 2.01 0 1.02 0 0 Z " fill="#FBFDFE" transform="translate(231,138)"/>
<path d="M0 0 C1.48667761 -0.00573832 1.48667761 -0.00573832 3.00338912 -0.01159257 C6.29241499 -0.02183149 9.5812633 -0.01794782 12.87030029 -0.01396179 C15.2416449 -0.01831335 17.6129881 -0.02349798 19.98432922 -0.02944946 C26.40391768 -0.04280401 32.82344713 -0.04342199 39.24304676 -0.04088616 C43.25960703 -0.03959898 47.27615849 -0.04223217 51.29271698 -0.04587364 C51.96130853 -0.04646883 52.62990008 -0.04706402 53.31875198 -0.04767724 C54.67740013 -0.04888911 56.03604829 -0.05010325 57.39469644 -0.05131962 C70.11346744 -0.06217597 82.83221187 -0.06004193 95.55098435 -0.05393478 C107.15729988 -0.04876942 118.76353137 -0.06001436 130.36983028 -0.07903299 C142.31787999 -0.09845987 154.26589005 -0.10665879 166.21395564 -0.10290974 C172.90952676 -0.10100476 179.60501587 -0.10368478 186.30057526 -0.11762428 C192.60109967 -0.13025121 198.90145667 -0.12821254 205.20197868 -0.11521339 C207.50487005 -0.11285851 209.80777338 -0.11554292 212.11065102 -0.12383652 C227.83182915 -0.1763404 242.14715434 0.71954053 256.99041748 6.38569641 C257.78190186 6.68427551 258.57338623 6.98285461 259.38885498 7.29048157 C272.1067472 12.26317743 283.48540084 18.98988972 293.55291748 28.26069641 C294.33578125 28.97999329 294.33578125 28.97999329 295.13446045 29.71382141 C316.11799466 49.21392009 330.48131265 75.86631653 331.92361259 104.82729149 C332.11051473 111.04144971 332.08329735 117.25420771 332.05462646 123.47041321 C332.05841882 125.84131693 332.06392635 128.21221842 332.07099915 130.58311462 C332.08484911 136.96518768 332.07385894 143.34698799 332.05728793 149.72904563 C332.04475648 155.7563371 332.0490608 161.78360342 332.05241764 167.81090126 C332.05827135 179.75262569 332.04422131 191.69424407 332.01947021 203.63594055 C331.99554061 215.18285594 331.98847547 226.72962981 331.9989624 238.27656555 C332.01040861 250.90206858 332.01225738 263.52750647 331.99786431 276.15300876 C331.99633872 277.50276076 331.99481836 278.85251277 331.9933033 280.20226479 C331.99254548 280.86608742 331.99178767 281.52991006 331.99100689 282.21384853 C331.98629385 286.85829134 331.98820457 291.50270373 331.9923687 296.14714622 C331.99716908 302.41250667 331.98691076 308.67767333 331.96541405 314.94299698 C331.95988824 317.23095484 331.95934176 319.51893148 331.96436691 321.80689049 C331.99459425 337.55329333 331.06106634 352.30486456 325.86541748 367.32319641 C325.61050537 368.06722717 325.35559326 368.81125793 325.09295654 369.57783508 C317.13142583 391.90483982 300.9619964 412.95432644 280.55291748 425.26069641 C279.46237061 425.92585266 278.37182373 426.59100891 277.24822998 427.27632141 C259.03070043 438.15945542 239.85924522 443.41224575 218.65209961 443.40786743 C217.68340651 443.41154412 216.71471342 443.41522081 215.71666598 443.41900891 C212.48531986 443.42998196 209.25400596 443.43387876 206.02264404 443.43769836 C203.6992635 443.44396802 201.37588396 443.45061526 199.05250549 443.45761108 C191.43285819 443.47860067 183.81321081 443.48901125 176.19354248 443.49897766 C173.56275167 443.50302764 170.93196095 443.50714463 168.30117035 443.51132774 C157.34975604 443.52819128 146.39834378 443.54282379 135.44691849 443.55007648 C132.6100184 443.55198598 129.77311832 443.55390637 126.93621826 443.55586243 C125.8787382 443.55658804 125.8787382 443.55658804 124.7998949 443.55732831 C113.40367837 443.5656119 102.00756737 443.5909231 90.61139682 443.6234431 C78.87699615 443.65665166 67.14264884 443.67453771 55.40820098 443.67772073 C48.83367078 443.68006123 42.25930745 443.68889055 35.68482208 443.7141819 C29.48935716 443.73763037 23.29416701 443.74162891 17.09866905 443.73142052 C14.83979816 443.73092905 12.58091295 443.73713294 10.32208443 443.75097656 C-19.30664022 443.92222281 -47.70959298 437.32318718 -70.44708252 417.26069641 C-71.67491455 416.23009094 -71.67491455 416.23009094 -72.92755127 415.17866516 C-94.69432331 396.44911712 -107.32523262 370.41829332 -111.44708252 342.26069641 C-111.69840369 338.80158622 -111.72242383 335.36348406 -111.70777893 331.89627075 C-111.71160448 330.91402501 -111.71543002 329.93177927 -111.7193715 328.91976851 C-111.72960904 325.66071517 -111.72572701 322.40184106 -111.72174072 319.14277649 C-111.72609239 316.79275857 -111.73127705 314.44274207 -111.73722839 312.09272766 C-111.75058255 305.73092131 -111.75120091 299.36917451 -111.74866509 293.00735688 C-111.74745674 287.01004557 -111.75368209 281.01274249 -111.75909855 275.01543447 C-111.76995497 262.40727227 -111.76782097 249.79913687 -111.76171371 237.19097319 C-111.75654966 225.68879733 -111.76778984 214.1867063 -111.78681193 202.68454722 C-111.80624565 190.84158377 -111.81443644 178.99866032 -111.81068867 167.15568084 C-111.80878456 160.51988807 -111.81145552 153.88415831 -111.82540321 147.24837685 C-111.83804002 141.00284084 -111.83598226 134.75747362 -111.82299232 128.51194 C-111.82063949 126.23043191 -111.82331439 123.94891173 -111.83161545 121.66741753 C-111.94912207 86.83731188 -102.04625189 57.60154928 -77.44708252 32.26069641 C-62.23097214 16.99291843 -42.48661245 6.67856028 -21.44708252 2.26069641 C-20.65312112 2.09391712 -19.85915972 1.92713784 -19.04113889 1.75530463 C-12.62402046 0.49002048 -6.53125526 -0.02732837 0 0 Z M-78.44708252 47.26069641 C-80.99325402 50.47511598 -83.25592065 53.79689003 -85.44708252 57.26069641 C-85.95755127 58.02639954 -86.46802002 58.79210266 -86.99395752 59.58100891 C-99.82112251 79.61518928 -102.05532045 101.04816487 -101.96466064 124.21748352 C-101.97009338 126.57352122 -101.97722244 128.92955552 -101.98590088 131.2855835 C-102.00400115 137.63278447 -101.99712166 143.97972284 -101.98438454 150.3269279 C-101.97522339 156.32300113 -101.98225137 162.31905142 -101.98809332 168.3151241 C-101.99945347 180.91533795 -101.98645804 193.5154347 -101.96489185 206.11562932 C-101.94702916 216.88466534 -101.95012698 227.65352875 -101.96856689 238.42256165 C-101.99006205 250.98143852 -101.99835093 263.54021318 -101.98611784 276.09910589 C-101.9798344 282.72763319 -101.97895547 289.35606486 -101.99226379 295.98458672 C-102.00391136 302.22043741 -101.9956353 308.45596573 -101.97268677 314.691782 C-101.96744669 316.96557966 -101.96883156 319.23940497 -101.97773743 321.51319122 C-102.09384714 354.19838388 -93.21188587 380.83820597 -70.25958252 404.82319641 C-51.48567184 423.13291699 -24.72084674 434.60726266 1.6048584 434.53485107 C3.04609396 434.54270609 3.04609396 434.54270609 4.5164454 434.5507198 C7.70930995 434.56562127 10.90201285 434.56642279 14.09490967 434.5670929 C16.39563768 434.57472135 18.69636317 434.58315002 20.99708557 434.59231567 C27.2312478 434.61420802 33.46536098 434.62305326 39.6995573 434.62814212 C43.60377006 434.63179388 47.50797014 434.63803839 51.41217804 434.64514351 C62.25386762 434.6645919 73.09554424 434.68110859 83.93725204 434.68402004 C84.97590948 434.6843014 84.97590948 434.6843014 86.03554989 434.68458844 C87.43889411 434.68495465 88.84223833 434.68531835 90.24558255 434.68567955 C90.94206655 434.68586236 91.63855056 434.68604517 92.35614014 434.68623352 C93.05348999 434.68641407 93.75083985 434.68659462 94.46932152 434.68678064 C105.74123142 434.69031402 117.0129493 434.71728773 128.28479275 434.75473141 C139.89949635 434.79300013 151.51409598 434.81173976 163.12886357 434.81247956 C169.63303597 434.81326833 176.1369607 434.82182109 182.64107513 434.85047722 C188.77096933 434.87688062 194.90041452 434.87873994 201.03034019 434.86282158 C203.2625725 434.8610243 205.49483196 434.86753915 207.72700691 434.88364029 C239.96078146 435.10170442 269.03743161 426.05866038 292.55291748 403.26069641 C300.49309293 395.1792367 306.38497095 386.30094036 311.55291748 376.26069641 C312.2586792 374.94391907 312.2586792 374.94391907 312.97869873 373.60054016 C315.852611 367.84381807 317.63596717 361.88895268 319.30291748 355.69819641 C319.61942261 354.52897644 319.61942261 354.52897644 319.94232178 353.33613586 C322.2158408 344.43517362 322.70260457 335.55848929 322.69335938 326.40289307 C322.6963305 325.46304284 322.69930162 324.52319262 322.70236278 323.55486208 C322.71097315 320.43327871 322.71255148 317.31173403 322.71405029 314.19013977 C322.71868391 311.94041361 322.72370929 309.69068823 322.72909546 307.44096375 C322.74216923 301.34763388 322.74865459 295.254315 322.75310612 289.16097331 C322.75604501 285.34725915 322.76015134 281.53354794 322.76461029 277.71983528 C322.7767096 267.13462799 322.78709479 256.54942328 322.79048538 245.96420956 C322.79070495 245.28831912 322.79092451 244.61242869 322.79115073 243.91605673 C322.79136901 243.23866755 322.79158729 242.56127837 322.79181218 241.86336225 C322.79225563 240.49100554 322.79270219 239.11864883 322.79315186 237.74629211 C322.79337329 237.06557439 322.79359471 236.38485667 322.79382285 235.68351115 C322.79776633 224.66694 322.81521089 213.65043517 322.83851138 202.63388961 C322.86230957 191.28929145 322.87443383 179.94473765 322.8758533 168.60011011 C322.87689745 162.24427204 322.88272196 155.88852766 322.90067291 149.53271294 C322.91724755 143.5482014 322.91926378 137.56385306 322.91053391 131.57932663 C322.90976854 129.39498899 322.91403942 127.21064223 322.92399216 125.02632713 C323.04782646 96.13141372 317.35619843 70.15025912 298.55291748 47.26069641 C297.86584717 46.4086261 297.17877686 45.55655579 296.47088623 44.67866516 C283.07128966 28.89249852 264.75482511 17.93497966 244.74796295 12.82622528 C243.19215891 12.4253898 241.6465685 11.98391771 240.11000824 11.51468658 C229.03768789 8.46065075 217.96358279 8.82359029 206.56268311 8.84077454 C204.25003655 8.83342444 201.93739365 8.82483549 199.62475586 8.81510925 C193.37221619 8.79297796 187.11980864 8.78995857 180.86723518 8.79185677 C175.62947863 8.79197691 170.39174961 8.78339434 165.15400076 8.77507925 C152.07707899 8.75477736 139.00023299 8.75368369 125.92330092 8.76088637 C114.61533301 8.76645216 103.30759234 8.74566932 91.99967748 8.7125259 C80.34306719 8.6786303 68.68656523 8.66364059 57.02990484 8.66824293 C50.504024 8.67029972 43.9783693 8.66499829 37.45252991 8.64035034 C31.30616765 8.61790128 25.1602738 8.62011077 19.01390839 8.64027786 C16.77480954 8.64365657 14.53567804 8.63873679 12.29662323 8.62429428 C-23.47875798 8.40969966 -54.05828756 20.43302195 -78.44708252 47.26069641 Z " fill="#003D76" transform="translate(145.44708251953125,34.73930358886719)"/>
<path d="M0 0 C4.5 4.5 4.5 4.5 5 8 C4.34 7.67 3.68 7.34 3 7 C3 6.34 3 5.68 3 5 C2.34 5 1.68 5 1 5 C1 56.81 1 108.62 1 162 C0.67 162 0.34 162 0 162 C0 108.54 0 55.08 0 0 Z " fill="#087CE7" transform="translate(117,214)"/>
<path d="M0 0 C21.78 0 43.56 0 66 0 C65.67 1.32 65.34 2.64 65 4 C64.505 3.01 64.505 3.01 64 2 C55.83754649 2.10750505 47.67518683 2.22013918 39.51289654 2.33933926 C35.72290121 2.39452584 31.93289811 2.447939 28.14282227 2.49731445 C24.48584602 2.54502094 20.828963 2.59736599 17.17209816 2.65294075 C15.7762668 2.67333583 14.3804099 2.69205361 12.98453331 2.70907402 C11.03088898 2.73318077 9.07732803 2.76378046 7.1237793 2.79467773 C6.0112529 2.81022202 4.8987265 2.8257663 3.75248718 2.84178162 C0.90974714 2.88493745 0.90974714 2.88493745 -2 4 C-1.34 2.68 -0.68 1.36 0 0 Z " fill="#C2DEF9" transform="translate(387,138)"/>
<path d="M0 0 C0.66 0 1.32 0 2 0 C2.33 1.65 2.66 3.3 3 5 C4.32 5.33 5.64 5.66 7 6 C7.33 8.31 7.66 10.62 8 13 C4.03309308 9.62812912 1.6260436 4.87813081 0 0 Z " fill="#4CA0ED" transform="translate(407,297)"/>
<path d="M0 0 C4.5 4.5 4.5 4.5 5 8 C4.34 7.67 3.68 7.34 3 7 C3 6.34 3 5.68 3 5 C2.34 5 1.68 5 1 5 C1 7.31 1 9.62 1 12 C0.67 12 0.34 12 0 12 C0 8.04 0 4.08 0 0 Z " fill="#298EEA" transform="translate(117,214)"/>
<path d="M0 0 C2 3 2 3 2 5 C2.66 5 3.32 5 4 5 C5.6875 7.375 5.6875 7.375 7 10 C6.67 10.66 6.34 11.32 6 12 C3.37591634 9.62582907 1.61386598 7.15088121 0 4 C0 2.68 0 1.36 0 0 Z " fill="#57A6EE" transform="translate(294,238)"/>
<path d="M0 0 C0.33 0.66 0.66 1.32 1 2 C0.0625 4.625 0.0625 4.625 -1 7 C-1.66 7 -2.32 7 -3 7 C-3 7.99 -3 8.98 -3 10 C-3.66 10 -4.32 10 -5 10 C-4.55090939 8.51800098 -4.09043436 7.03944764 -3.625 5.5625 C-3.36976563 4.73878906 -3.11453125 3.91507813 -2.8515625 3.06640625 C-2 1 -2 1 0 0 Z " fill="#6EB2F0" transform="translate(370,164)"/>
<path d="M0 0 C0.33 0.99 0.66 1.98 1 3 C-0.375 5.5 -0.375 5.5 -2 8 C-2.33 8.99 -2.66 9.98 -3 11 C-3.99 11 -4.98 11 -6 11 C-4.18690997 7.22272911 -2.0926741 3.62730178 0 0 Z " fill="#5FAAEF" transform="translate(307,354)"/>
<path d="M0 0 C1 2 1 2 0.375 4.4375 C-1.27706844 7.51635481 -2.91798591 8.45899296 -6 10 C-5.690625 9.401875 -5.38125 8.80375 -5.0625 8.1875 C-3.89790296 5.91043228 -3.89790296 5.91043228 -3 3 C-2.34 3 -1.68 3 -1 3 C-0.67 2.01 -0.34 1.02 0 0 Z " fill="#63ACEF" transform="translate(241,320)"/>
<path d="M0 0 C0.66 0.99 1.32 1.98 2 3 C-0.31 4.98 -2.62 6.96 -5 9 C-3.44455189 5.88910379 -1.80979645 2.96148509 0 0 Z " fill="#57A6EE" transform="translate(226,343)"/>
<path d="M0 0 C0.93423645 3.01031744 1.04449911 3.86650268 0 7 C-2.0625 7.6875 -2.0625 7.6875 -4 8 C-2.87548273 5.0280615 -1.77706209 2.66559313 0 0 Z " fill="#499EED" transform="translate(325,325)"/>
</svg>
